<svg id="svg" xmlns="http://www.w3.org/2000/svg" xmlns:xlink="http://www.w3.org/1999/xlink" width="400" height="440.9448818897638" viewBox="0, 0, 400,440.9448818897638"><g id="svgg"><path id="path0" d="M86.614 56.341 C 40.041 77.641,51.939 141.732,102.466 141.732 C 146.740 141.732,162.055 74.825,121.567 58.284 C 103.264 50.806,99.208 50.581,86.614 56.341 M286.119 53.694 C 271.492 57.710,259.677 66.441,255.008 76.682 C 249.821 88.062,249.699 117.354,254.832 119.065 C 256.721 119.695,258.312 121.864,258.367 123.885 C 259.098 151.038,319.216 144.680,334.114 115.874 C 349.939 85.274,318.665 44.757,286.119 53.694 M78.140 175.790 C 55.469 189.528,44.506 325.489,63.363 359.042 C 82.602 393.273,142.340 386.792,145.309 350.152 C 145.544 347.253,146.607 327.874,147.671 307.087 C 149.497 271.428,149.962 269.367,155.906 270.633 C 159.370 271.371,181.537 272.000,205.165 272.031 L 248.125 272.086 249.411 313.209 C 250.846 359.079,252.351 363.260,272.031 376.021 C 290.920 388.268,304.405 386.724,323.921 370.079 C 339.165 357.077,340.157 351.402,340.157 277.196 C 340.157 200.060,338.125 190.629,318.483 176.643 C 301.519 164.564,258.459 172.826,258.307 188.189 C 258.285 190.354,257.011 192.126,255.476 192.126 C 253.940 192.126,251.736 198.443,250.579 206.163 C 243.754 251.675,152.971 252.009,145.949 206.548 C 141.386 177.008,104.066 160.079,78.140 175.790 " stroke="none" fill="#000000" fill-rule="evenodd"></path></g></svg>